<svg xmlns="http://www.w3.org/2000/svg" viewBox="0 0 1000 640" role="img" aria-label="HRC Designer screenshot placeholder">
  <rect width="1000" height="640" fill="#f5f5f5" stroke="#d0d0d0" stroke-width="2"/>
  <rect x="0" y="0" width="1000" height="46" fill="#8C1D40"/>
  <circle cx="30" cy="23" r="8" fill="#ffffff" opacity="0.6"/><circle cx="56" cy="23" r="8" fill="#ffffff" opacity="0.6"/><circle cx="82" cy="23" r="8" fill="#ffffff" opacity="0.6"/>
  <text x="500" y="31" text-anchor="middle" font-family="Arial, Helvetica, sans-serif" font-size="20" font-weight="bold" fill="#ffffff">HRC Designer</text>
  <rect x="24" y="70" width="290" height="546" fill="#ffffff" stroke="#d0d0d0"/>
  <rect x="44" y="94" width="180" height="16" fill="#bfbfbf"/>
  <g fill="#e8e8e8"><rect x="44" y="130" width="250" height="30"/><rect x="44" y="170" width="250" height="30"/><rect x="44" y="210" width="250" height="30"/><rect x="44" y="250" width="250" height="30"/><rect x="44" y="290" width="250" height="30"/></g>
  <rect x="44" y="345" width="118" height="38" fill="#8C1D40"/>
  <rect x="176" y="345" width="118" height="38" fill="#FFC627"/>
  <rect x="338" y="70" width="638" height="360" fill="#ffffff" stroke="#d0d0d0"/>
  <g stroke="#191919" stroke-width="2" fill="none"><line x1="390" y1="100" x2="390" y2="392"/><line x1="390" y1="392" x2="944" y2="392"/></g>
  <path d="M390 392 L470 160 L560 200 L720 240 L944 290" fill="none" stroke="#8C1D40" stroke-width="4"/>
  <path d="M390 392 L480 210 L620 260 L944 330" fill="none" stroke="#FFC627" stroke-width="4" stroke-dasharray="10 8"/>
  <rect x="338" y="456" width="638" height="160" fill="#ffffff" stroke="#d0d0d0"/>
  <g fill="#e8e8e8"><rect x="360" y="480" width="594" height="22"/><rect x="360" y="512" width="594" height="22"/><rect x="360" y="544" width="594" height="22"/><rect x="360" y="576" width="440" height="22"/></g>
  <text x="500" y="630" text-anchor="middle" font-family="Arial, Helvetica, sans-serif" font-size="17" font-weight="bold" fill="#8C1D40">Screenshot placeholder, replace with an actual HRC Designer capture</text>
</svg>
